# Utah Teapot Model
# Version: 1976 - Jim Blinn
# Triangle Mesh Resolution: 2 (216 faces)
o Utah Teapot

v -1.5 2.1 0
v -1.55 1.9875 -0.225
v -1.6 1.875 0
v -2.625 2.04375 0
v -2.51875 1.945313 -0.225
v -2.4125 1.846875 0
v -3 1.65 0
v -2.85 1.65 -0.225
v -2.7 1.65 0
v -1.5 2.1 0
v -1.55 1.9875 0.225
v -1.6 1.875 0
v -2.625 2.04375 0
v -2.51875 1.945313 0.225
v -2.4125 1.846875 0
v -3 1.65 0
v -2.85 1.65 0.225
v -2.7 1.65 0
v -3 1.65 0
v -2.85 1.65 -0.225
v -2.7 1.65 0
v -2.73125 1.007812 0
v -2.634375 1.103906 -0.225
v -2.5375 1.2 0
v -1.9 0.45 0
v -1.95 0.6 -0.225
v -2 0.75 0
v -3 1.65 0
v -2.85 1.65 0.225
v -2.7 1.65 0
v -2.73125 1.007812 0
v -2.634375 1.103906 0.225
v -2.5375 1.2 0
v -1.9 0.45 0
v -1.95 0.6 0.225
v -2 0.75 0
v 2.8 2.25 0
v 3 2.25 -0.1125
v 3.2 2.25 0
v 2.825 2.30625 0
v 3.126563 2.316797 -0.15
v 3.428125 2.327344 0
v 2.7 2.25 0
v 3 2.25 -0.1875
v 3.3 2.25 0
v 2.8 2.25 0
v 3 2.25 0.1125
v 3.2 2.25 0
v 2.825 2.30625 0
v 3.126563 2.316797 0.15
v 3.428125 2.327344 0
v 2.7 2.25 0
v 3 2.25 0.1875
v 3.3 2.25 0
v 2.7 2.25 0
v 3 2.25 -0.1875
v 3.3 2.25 0
v 2.3875 1.65 0
v 2.5375 1.471875 -0.34125
v 2.6875 1.29375 0
v 1.7 1.275 0
v 1.7 0.8625 -0.495
v 1.7 0.45 0
v 2.7 2.25 0
v 3 2.25 0.1875
v 3.3 2.25 0
v 2.3875 1.65 0
v 2.5375 1.471875 0.34125
v 2.6875 1.29375 0
v 1.7 1.275 0
v 1.7 0.8625 0.495
v 1.7 0.45 0
v 0 3 0
v 0 3 0
v -0.325 2.83125 0
v -0.2310313 2.83125 -0.2310313
v 0 2.83125 -0.325
v -0.2 2.55 0
v -0.142 2.55 -0.142
v 0 2.55 -0.2
v 0 3 0
v 0 3 0
v 0 2.83125 -0.325
v 0.2310313 2.83125 -0.2310313
v 0.325 2.83125 0
v 0 2.55 -0.2
v 0.142 2.55 -0.142
v 0.2 2.55 0
v 0 3 0
v 0 3 0
v 0 2.83125 0.325
v 0.2310313 2.83125 0.2310313
v 0.325 2.83125 0
v 0 2.55 0.2
v 0.142 2.55 0.142
v 0.2 2.55 0
v 0 3 0
v 0 3 0
v -0.325 2.83125 0
v -0.2310313 2.83125 0.2310313
v 0 2.83125 0.325
v -0.2 2.55 0
v -0.142 2.55 0.142
v 0 2.55 0.2
v -0.2 2.55 0
v -0.142 2.55 -0.142
v 0 2.55 -0.2
v -0.825 2.4 0
v -0.58575 2.4 -0.58575
v 0 2.4 -0.825
v -1.3 2.25 0
v -0.923 2.25 -0.923
v 0 2.25 -1.3
v 0 2.55 -0.2
v 0.142 2.55 -0.142
v 0.2 2.55 0
v 0 2.4 -0.825
v 0.58575 2.4 -0.58575
v 0.825 2.4 0
v 0 2.25 -1.3
v 0.923 2.25 -0.923
v 1.3 2.25 0
v 0 2.55 0.2
v 0.142 2.55 0.142
v 0.2 2.55 0
v 0 2.4 0.825
v 0.58575 2.4 0.58575
v 0.825 2.4 0
v 0 2.25 1.3
v 0.923 2.25 0.923
v 1.3 2.25 0
v -0.2 2.55 0
v -0.142 2.55 0.142
v 0 2.55 0.2
v -0.825 2.4 0
v -0.58575 2.4 0.58575
v 0 2.4 0.825
v -1.3 2.25 0
v -0.923 2.25 0.923
v 0 2.25 1.3
v -1.4 2.25 0
v -0.994 2.25 -0.994
v 0 2.25 -1.4
v -1.403125 2.348438 0
v -0.9962187 2.348438 -0.9962187
v 0 2.348438 -1.403125
v -1.5 2.25 0
v -1.065 2.25 -1.065
v 0 2.25 -1.5
v 0 2.25 -1.4
v 0.994 2.25 -0.994
v 1.4 2.25 0
v 0 2.348438 -1.403125
v 0.9962187 2.348438 -0.9962187
v 1.403125 2.348438 0
v 0 2.25 -1.5
v 1.065 2.25 -1.065
v 1.5 2.25 0
v 0 2.25 1.4
v 0.994 2.25 0.994
v 1.4 2.25 0
v 0 2.348438 1.403125
v 0.9962187 2.348438 0.9962187
v 1.403125 2.348438 0
v 0 2.25 1.5
v 1.065 2.25 1.065
v 1.5 2.25 0
v -1.4 2.25 0
v -0.994 2.25 0.994
v 0 2.25 1.4
v -1.403125 2.348438 0
v -0.9962187 2.348438 0.9962187
v 0 2.348438 1.403125
v -1.5 2.25 0
v -1.065 2.25 1.065
v 0 2.25 1.5
v -1.5 2.25 0
v -1.065 2.25 -1.065
v 0 2.25 -1.5
v -1.84375 1.471875 0
v -1.309063 1.471875 -1.309063
v 0 1.471875 -1.84375
v -2 0.75 0
v -1.42 0.75 -1.42
v 0 0.75 -2
v 0 2.25 -1.5
v 1.065 2.25 -1.065
v 1.5 2.25 0
v 0 1.471875 -1.84375
v 1.309063 1.471875 -1.309063
v 1.84375 1.471875 0
v 0 0.75 -2
v 1.42 0.75 -1.42
v 2 0.75 0
v 0 2.25 1.5
v 1.065 2.25 1.065
v 1.5 2.25 0
v 0 1.471875 1.84375
v 1.309063 1.471875 1.309063
v 1.84375 1.471875 0
v 0 0.75 2
v 1.42 0.75 1.42
v 2 0.75 0
v -1.5 2.25 0
v -1.065 2.25 1.065
v 0 2.25 1.5
v -1.84375 1.471875 0
v -1.309063 1.471875 1.309063
v 0 1.471875 1.84375
v -2 0.75 0
v -1.42 0.75 1.42
v 0 0.75 2
v -2 0.75 0
v -1.42 0.75 -1.42
v 0 0.75 -2
v -1.75 0.234375 0
v -1.2425 0.234375 -1.2425
v 0 0.234375 -1.75
v -1.5 0 0
v -1.065 1.117587e-8 -1.065
v 0 0 -1.5
v 0 0.75 -2
v 1.42 0.75 -1.42
v 2 0.75 0
v 0 0.234375 -1.75
v 1.2425 0.234375 -1.2425
v 1.75 0.234375 0
v 0 0 -1.5
v 1.065 1.117587e-8 -1.065
v 1.5 0 0
v 0 0.75 2
v 1.42 0.75 1.42
v 2 0.75 0
v 0 0.234375 1.75
v 1.2425 0.234375 1.2425
v 1.75 0.234375 0
v 0 0 1.5
v 1.065 1.117587e-8 1.065
v 1.5 0 0
v -2 0.75 0
v -1.42 0.75 1.42
v 0 0.75 2
v -1.75 0.234375 0
v -1.2425 0.234375 1.2425
v 0 0.234375 1.75
v -1.5 0 0
v -1.065 1.117587e-8 1.065
v 0 0 1.5

vn 0 1 0
vn 0 0 -1
vn 0 -1 0
vn -0.2873479 0.9578263 0
vn 0 0 -1
vn 0.1961161 -0.9805806 0
vn -1 0 0
vn 0 0 -1
vn 1 0 0
vn 0 1 0
vn 0 0 1
vn 0 -1 0
vn -0.2873479 0.9578263 0
vn 0 0 1
vn 0.1961161 -0.9805806 0
vn -1 0 0
vn 0 0 1
vn 1 0 0
vn -1 0 0
vn 0 0 -1
vn 1 0 0
vn -0.8290722 -0.5591416 0
vn 0 0 -1
vn 0.8944272 0.4472137 0
vn -0.5144956 -0.857493 0
vn 0 0 -1
vn 0.5144957 0.8574929 0
vn -1 0 0
vn 0 0 1
vn 1 0 0
vn -0.8290722 -0.5591416 0
vn 0 0 1
vn 0.8944272 0.4472137 0
vn -0.5144956 -0.857493 0
vn 0 0 1
vn 0.5144957 0.8574929 0
vn 0.7071059 -0.7071076 0
vn 0 0 1
vn -0.5144954 0.8574931 0
vn 0 1 0
vn -0.04643553 0.9957836 -0.07911264
vn 0.1414206 0.9899496 0
vn -0.7071068 0.7071068 0
vn 0 0 -1
vn 0.4856427 -0.8741574 0
vn 0.7071059 -0.7071076 0
vn 0 0 -1
vn -0.5144954 0.8574931 0
vn 0 1 0
vn -0.04643553 0.9957836 0.07911264
vn 0.1414206 0.9899496 0
vn -0.7071068 0.7071068 0
vn 0 0 1
vn 0.4856427 -0.8741574 0
vn -0.7071068 0.7071068 0
vn 0 0 -1
vn 0.485643 -0.8741572 0
vn -0.9529258 0.3032037 0
vn 0.2156225 0.1361827 -0.9669339
vn 0.9756098 -0.2195122 0
vn 0 1 0
vn 0 0 -1
vn 0.2095291 -0.9778025 0
vn -0.7071068 0.7071068 0
vn 0 0 1
vn 0.485643 -0.8741572 0
vn -0.9529258 0.3032037 0
vn 0.2156225 0.1361827 0.9669339
vn 0.9756098 -0.2195122 0
vn 0 1 0
vn 0 0 1
vn 0.2095291 -0.9778025 0
vn 0 1 0
vn 0 1 0
vn -0.8574929 -0.5144958 0
vn -0.605398 -0.5167072 -0.605398
vn 0 -0.5144958 -0.8574929
vn -0.7071068 0.7071067 0
vn -0.4989779 0.7085493 -0.4989779
vn 0 0.7071067 -0.7071068
vn 0 1 0
vn 0 1 0
vn 0 -0.5144958 -0.8574929
vn 0.605398 -0.5167072 -0.605398
vn 0.8574929 -0.5144958 0
vn 0 0.7071067 -0.7071068
vn 0.4989779 0.7085493 -0.4989779
vn 0.7071068 0.7071067 0
vn 0 1 0
vn 0 1 0
vn 0 -0.5144958 0.8574929
vn 0.605398 -0.5167072 0.605398
vn 0.8574929 -0.5144958 0
vn 0 0.7071067 0.7071068
vn 0.4989779 0.7085493 0.4989779
vn 0.7071068 0.7071067 0
vn 0 1 0
vn 0 1 0
vn -0.8574929 -0.5144958 0
vn -0.605398 -0.5167072 0.605398
vn 0 -0.5144958 0.8574929
vn -0.7071068 0.7071067 0
vn -0.4989779 0.7085493 0.4989779
vn 0 0.7071067 0.7071068
vn -0.7071064 0.7071071 0
vn -0.4989779 0.7085493 -0.4989779
vn 0 0.7071071 -0.7071064
vn -0.1961161 0.9805807 0
vn -0.1381314 0.9807341 -0.1381314
vn 0 0.9805807 -0.1961161
vn -1 0 0
vn -0.7071068 0 -0.7071068
vn 0 0 -1
vn 0 0.7071071 -0.7071064
vn 0.4989779 0.7085493 -0.4989779
vn 0.7071064 0.7071071 0
vn 0 0.9805807 -0.1961161
vn 0.1381314 0.9807341 -0.1381314
vn 0.1961161 0.9805807 0
vn 0 0 -1
vn 0.7071068 0 -0.7071068
vn 1 0 0
vn 0 0.7071071 0.7071064
vn 0.4989779 0.7085493 0.4989779
vn 0.7071064 0.7071071 0
vn 0 0.9805807 0.1961161
vn 0.1381314 0.9807341 0.1381314
vn 0.1961161 0.9805807 0
vn 0 0 1
vn 0.7071068 0 0.7071068
vn 1 0 0
vn -0.7071064 0.7071071 0
vn -0.4989779 0.7085493 0.4989779
vn 0 0.7071071 0.7071064
vn -0.1961161 0.9805807 0
vn -0.1381314 0.9807341 0.1381314
vn 0 0.9805807 0.1961161
vn -1 0 0
vn -0.7071068 0 0.7071068
vn 0 0 1
vn 0.9417419 -0.3363365 0
vn 0.6656033 -0.3375565 0.6656033
vn 0 -0.3363365 0.9417419
vn 0 1 0
vn 0 1 0
vn 0 1 0
vn -0.9417419 0.3363365 0
vn -0.6656032 0.3375569 -0.6656032
vn 0 0.3363365 -0.9417419
vn 0 -0.3363365 0.9417419
vn -0.6656033 -0.3375565 0.6656033
vn -0.9417419 -0.3363365 0
vn 0 1 0
vn 0 1 0
vn 0 1 0
vn 0 0.3363365 -0.9417419
vn 0.6656032 0.3375569 -0.6656032
vn 0.9417419 0.3363365 0
vn 0 -0.3363365 -0.9417419
vn -0.6656033 -0.3375565 -0.6656033
vn -0.9417419 -0.3363365 0
vn 0 1 0
vn 0 1 0
vn 0 1 0
vn 0 0.3363365 0.9417419
vn 0.6656032 0.3375569 0.6656032
vn 0.9417419 0.3363365 0
vn 0.9417419 -0.3363365 0
vn 0.6656033 -0.3375565 -0.6656033
vn 0 -0.3363365 -0.9417419
vn 0 1 0
vn 0 1 0
vn 0 1 0
vn -0.9417419 0.3363365 0
vn -0.6656032 0.3375569 0.6656032
vn 0 0.3363365 0.9417419
vn -0.9417419 0.3363364 0
vn -0.6656035 0.3375559 -0.6656035
vn 0 0.3363364 -0.9417419
vn -0.9635179 0.2676438 0
vn -0.6811101 0.2686601 -0.6811101
vn 0 0.2676438 -0.9635179
vn -1 0 0
vn -0.7071068 0 -0.7071068
vn 0 0 -1
vn 0 0.3363364 -0.9417419
vn 0.6656035 0.3375559 -0.6656035
vn 0.9417419 0.3363364 0
vn 0 0.2676438 -0.9635179
vn 0.6811101 0.2686601 -0.6811101
vn 0.9635179 0.2676438 0
vn 0 0 -1
vn 0.7071068 0 -0.7071068
vn 1 0 0
vn 0 0.3363364 0.9417419
vn 0.6656035 0.3375559 0.6656035
vn 0.9417419 0.3363364 0
vn 0 0.2676438 0.9635179
vn 0.6811101 0.2686601 0.6811101
vn 0.9635179 0.2676438 0
vn 0 0 1
vn 0.7071068 0 0.7071068
vn 1 0 0
vn -0.9417419 0.3363364 0
vn -0.6656035 0.3375559 0.6656035
vn 0 0.3363364 0.9417419
vn -0.9635179 0.2676438 0
vn -0.6811101 0.2686601 0.6811101
vn 0 0.2676438 0.9635179
vn -1 0 0
vn -0.7071068 0 0.7071068
vn 0 0 1
vn -1 0 0
vn -0.7071068 0 -0.7071068
vn 0 0 -1
vn -0.792624 -0.6097108 0
vn -0.5596175 -0.6112745 -0.5596175
vn 0 -0.6097108 -0.792624
vn -1 0 0
vn -0.7071068 0 -0.7071068
vn 0 0 -1
vn 0 0 -1
vn 0.7071068 0 -0.7071068
vn 1 0 0
vn 0 -0.6097108 -0.792624
vn 0.5596175 -0.6112745 -0.5596175
vn 0.792624 -0.6097108 0
vn 0 0 -1
vn 0.7071068 0 -0.7071068
vn 1 0 0
vn 0 0 1
vn 0.7071068 0 0.7071068
vn 1 0 0
vn 0 -0.6097108 0.792624
vn 0.5596175 -0.6112745 0.5596175
vn 0.792624 -0.6097108 0
vn 0 0 1
vn 0.7071068 0 0.7071068
vn 1 0 0
vn -1 0 0
vn -0.7071068 0 0.7071068
vn 0 0 1
vn -0.792624 -0.6097108 0
vn -0.5596175 -0.6112745 0.5596175
vn 0 -0.6097108 0.792624
vn -1 0 0
vn -0.7071068 0 0.7071068
vn 0 0 1

vt 0.125 1
vt 0.1835938 1
vt 0.2421875 1
vt 0.125 0.8571429
vt 0.1835938 0.8535714
vt 0.2421875 0.8482143
vt 0.125 0.75
vt 0.1835938 0.75
vt 0.2421875 0.75
vt 0.125 1
vt 0.06640625 1
vt 0.0078125 1
vt 0.125 0.8571429
vt 0.06640625 0.8535714
vt 0.0078125 0.8482143
vt 0.125 0.75
vt 0.06640625 0.75
vt 0.0078125 0.75
vt 0.125 0.75
vt 0.1835938 0.75
vt 0.2421875 0.75
vt 0.125 0.6450101
vt 0.1835938 0.6471369
vt 0.2421875 0.6500361
vt 0.125 0.5175
vt 0.1835938 0.5175
vt 0.2421875 0.5175
vt 0.125 0.75
vt 0.06640625 0.75
vt 0.0078125 0.75
vt 0.125 0.6450101
vt 0.06640625 0.6471369
vt 0.0078125 0.6500361
vt 0.125 0.5175
vt 0.06640625 0.5175
vt 0.0078125 0.5175
vt 0.75 1
vt 0.8125 1
vt 0.875 1
vt 0.75 0.9625
vt 0.8125 0.9614999
vt 0.875 0.9609703
vt 0.75 0.925
vt 0.8125 0.925
vt 0.875 0.925
vt 1 1
vt 0.9375 1
vt 0.875 1
vt 1 0.9625
vt 0.9375 0.9614999
vt 0.875 0.9609703
vt 1 0.925
vt 0.9375 0.925
vt 0.875 0.925
vt 0.75 0.925
vt 0.8125 0.925
vt 0.875 0.925
vt 0.75 0.7405194
vt 0.8125 0.7362506
vt 0.875 0.7338991
vt 0.75 0.5132812
vt 0.8125 0.5132812
vt 0.875 0.5132812
vt 1 0.925
vt 0.9375 0.925
vt 0.875 0.925
vt 1 0.7405194
vt 0.9375 0.7362506
vt 0.875 0.7338991
vt 1 0.5132812
vt 0.9375 0.5132812
vt 0.875 0.5132812
vt 0.375 0.75
vt 0.375 0.75
vt 0.375 0.6098246
vt 0.4245822 0.6508355
vt 0.4450877 0.75
vt 0.375 0.515625
vt 0.4578641 0.5842718
vt 0.4921875 0.75
vt 0.375 0.75
vt 0.375 0.75
vt 0.4450877 0.75
vt 0.4245822 0.8491645
vt 0.375 0.8901754
vt 0.4921875 0.75
vt 0.457864 0.9157282
vt 0.375 0.984375
vt 0.375 0.75
vt 0.375 0.75
vt 0.3049123 0.75
vt 0.3254178 0.8491645
vt 0.375 0.8901754
vt 0.2578125 0.75
vt 0.292136 0.9157282
vt 0.375 0.984375
vt 0.375 0.75
vt 0.375 0.75
vt 0.375 0.6098246
vt 0.3254178 0.6508355
vt 0.3049123 0.75
vt 0.375 0.515625
vt 0.2921359 0.5842718
vt 0.2578125 0.75
vt 0.625 0.7139423
vt 0.6377483 0.7245034
vt 0.6430289 0.75
vt 0.625 0.6103284
vt 0.6743875 0.651225
vt 0.6948358 0.75
vt 0.625 0.515625
vt 0.707864 0.5842718
vt 0.7421875 0.75
vt 0.6430289 0.75
vt 0.6377483 0.7754967
vt 0.625 0.7860577
vt 0.6948358 0.75
vt 0.6743875 0.848775
vt 0.625 0.8896716
vt 0.7421875 0.75
vt 0.707864 0.9157282
vt 0.625 0.984375
vt 0.6069711 0.75
vt 0.6122517 0.7754967
vt 0.625 0.7860577
vt 0.5551642 0.75
vt 0.5756125 0.848775
vt 0.625 0.8896716
vt 0.5078125 0.75
vt 0.542136 0.9157282
vt 0.625 0.984375
vt 0.625 0.7139423
vt 0.6122517 0.7245034
vt 0.6069711 0.75
vt 0.625 0.6103284
vt 0.5756125 0.651225
vt 0.5551642 0.75
vt 0.625 0.515625
vt 0.542136 0.5842718
vt 0.5078125 0.75
vt 0 0.5
vt 0.125 0.5
vt 0.25 0.5
vt 0 0.479
vt 0.125 0.479
vt 0.25 0.479
vt 0 0.458
vt 0.125 0.458
vt 0.25 0.458
vt 0.25 0.5
vt 0.375 0.5
vt 0.5 0.5
vt 0.25 0.479
vt 0.375 0.479
vt 0.5 0.479
vt 0.25 0.458
vt 0.375 0.458
vt 0.5 0.458
vt 0.75 0.5
vt 0.625 0.5
vt 0.5 0.5
vt 0.75 0.479
vt 0.625 0.479
vt 0.5 0.479
vt 0.75 0.458
vt 0.625 0.458
vt 0.5 0.458
vt 1 0.5
vt 0.875 0.5
vt 0.75 0.5
vt 1 0.479
vt 0.875 0.479
vt 0.75 0.479
vt 1 0.458
vt 0.875 0.458
vt 0.75 0.458
vt 0 0.458
vt 0.125 0.458
vt 0.25 0.458
vt 0 0.3586324
vt 0.125 0.3586224
vt 0.25 0.3586324
vt 0 0.269
vt 0.125 0.269
vt 0.25 0.269
vt 0.25 0.458
vt 0.375 0.458
vt 0.5 0.458
vt 0.25 0.3586324
vt 0.375 0.3586224
vt 0.5 0.3586324
vt 0.25 0.269
vt 0.375 0.269
vt 0.5 0.269
vt 0.75 0.458
vt 0.625 0.458
vt 0.5 0.458
vt 0.75 0.3586324
vt 0.625 0.3586224
vt 0.5 0.3586324
vt 0.75 0.269
vt 0.625 0.269
vt 0.5 0.269
vt 1 0.458
vt 0.875 0.458
vt 0.75 0.458
vt 1 0.3586324
vt 0.875 0.3586224
vt 0.75 0.3586324
vt 1 0.269
vt 0.875 0.269
vt 0.75 0.269
vt 0 0.269
vt 0.125 0.269
vt 0.25 0.269
vt 0 0.1921104
vt 0.125 0.1921341
vt 0.25 0.1921104
vt 0 0.15
vt 0.125 0.15
vt 0.25 0.15
vt 0.25 0.269
vt 0.375 0.269
vt 0.5 0.269
vt 0.25 0.1921104
vt 0.375 0.1921341
vt 0.5 0.1921104
vt 0.25 0.15
vt 0.375 0.15
vt 0.5 0.15
vt 0.75 0.269
vt 0.625 0.269
vt 0.5 0.269
vt 0.75 0.1921104
vt 0.625 0.1921341
vt 0.5 0.1921104
vt 0.75 0.15
vt 0.625 0.15
vt 0.5 0.15
vt 1 0.269
vt 0.875 0.269
vt 0.75 0.269
vt 1 0.1921104
vt 0.875 0.1921341
vt 0.75 0.1921104
vt 1 0.15
vt 0.875 0.15
vt 0.75 0.15

f 2/2/2 4/4/4 1/1/1
f 4/4/4 2/2/2 5/5/5
f 3/3/3 5/5/5 2/2/2
f 5/5/5 3/3/3 6/6/6
f 5/5/5 7/7/7 4/4/4
f 7/7/7 5/5/5 8/8/8
f 6/6/6 8/8/8 5/5/5
f 8/8/8 6/6/6 9/9/9
f 13/13/13 11/11/11 10/10/10
f 11/11/11 13/13/13 14/14/14
f 14/14/14 12/12/12 11/11/11
f 12/12/12 14/14/14 15/15/15
f 16/16/16 14/14/14 13/13/13
f 14/14/14 16/16/16 17/17/17
f 17/17/17 15/15/15 14/14/14
f 15/15/15 17/17/17 18/18/18
f 20/20/20 22/22/22 19/19/19
f 22/22/22 20/20/20 23/23/23
f 21/21/21 23/23/23 20/20/20
f 23/23/23 21/21/21 24/24/24
f 23/23/23 25/25/25 22/22/22
f 25/25/25 23/23/23 26/26/26
f 24/24/24 26/26/26 23/23/23
f 26/26/26 24/24/24 27/27/27
f 31/31/31 29/29/29 28/28/28
f 29/29/29 31/31/31 32/32/32
f 32/32/32 30/30/30 29/29/29
f 30/30/30 32/32/32 33/33/33
f 34/34/34 32/32/32 31/31/31
f 32/32/32 34/34/34 35/35/35
f 35/35/35 33/33/33 32/32/32
f 33/33/33 35/35/35 36/36/36
f 38/38/38 40/40/40 37/37/37
f 40/40/40 38/38/38 41/41/41
f 39/39/39 41/41/41 38/38/38
f 41/41/41 39/39/39 42/42/42
f 41/41/41 43/43/43 40/40/40
f 43/43/43 41/41/41 44/44/44
f 42/42/42 44/44/44 41/41/41
f 44/44/44 42/42/42 45/45/45
f 49/49/49 47/47/47 46/46/46
f 47/47/47 49/49/49 50/50/50
f 50/50/50 48/48/48 47/47/47
f 48/48/48 50/50/50 51/51/51
f 52/52/52 50/50/50 49/49/49
f 50/50/50 52/52/52 53/53/53
f 53/53/53 51/51/51 50/50/50
f 51/51/51 53/53/53 54/54/54
f 56/56/56 58/58/58 55/55/55
f 58/58/58 56/56/56 59/59/59
f 57/57/57 59/59/59 56/56/56
f 59/59/59 57/57/57 60/60/60
f 59/59/59 61/61/61 58/58/58
f 61/61/61 59/59/59 62/62/62
f 60/60/60 62/62/62 59/59/59
f 62/62/62 60/60/60 63/63/63
f 67/67/67 65/65/65 64/64/64
f 65/65/65 67/67/67 68/68/68
f 68/68/68 66/66/66 65/65/65
f 66/66/66 68/68/68 69/69/69
f 70/70/70 68/68/68 67/67/67
f 68/68/68 70/70/70 71/71/71
f 71/71/71 69/69/69 68/68/68
f 69/69/69 71/71/71 72/72/72
f 73/73/73 76/76/76 75/75/75
f 74/74/74 77/77/77 76/76/76
f 76/76/76 78/78/78 75/75/75
f 78/78/78 76/76/76 79/79/79
f 77/77/77 79/79/79 76/76/76
f 79/79/79 77/77/77 80/80/80
f 81/81/81 84/84/84 83/83/83
f 82/82/82 85/85/85 84/84/84
f 84/84/84 86/86/86 83/83/83
f 86/86/86 84/84/84 87/87/87
f 85/85/85 87/87/87 84/84/84
f 87/87/87 85/85/85 88/88/88
f 91/91/91 92/92/92 89/89/89
f 92/92/92 93/93/93 90/90/90
f 94/94/94 92/92/92 91/91/91
f 92/92/92 94/94/94 95/95/95
f 95/95/95 93/93/93 92/92/92
f 93/93/93 95/95/95 96/96/96
f 99/99/99 100/100/100 97/97/97
f 100/100/100 101/101/101 98/98/98
f 102/102/102 100/100/100 99/99/99
f 100/100/100 102/102/102 103/103/103
f 103/103/103 101/101/101 100/100/100
f 101/101/101 103/103/103 104/104/104
f 106/106/106 108/108/108 105/105/105
f 108/108/108 106/106/106 109/109/109
f 107/107/107 109/109/109 106/106/106
f 109/109/109 107/107/107 110/110/110
f 109/109/109 111/111/111 108/108/108
f 111/111/111 109/109/109 112/112/112
f 110/110/110 112/112/112 109/109/109
f 112/112/112 110/110/110 113/113/113
f 115/115/115 117/117/117 114/114/114
f 117/117/117 115/115/115 118/118/118
f 116/116/116 118/118/118 115/115/115
f 118/118/118 116/116/116 119/119/119
f 118/118/118 120/120/120 117/117/117
f 120/120/120 118/118/118 121/121/121
f 119/119/119 121/121/121 118/118/118
f 121/121/121 119/119/119 122/122/122
f 126/126/126 124/124/124 123/123/123
f 124/124/124 126/126/126 127/127/127
f 127/127/127 125/125/125 124/124/124
f 125/125/125 127/127/127 128/128/128
f 129/129/129 127/127/127 126/126/126
f 127/127/127 129/129/129 130/130/130
f 130/130/130 128/128/128 127/127/127
f 128/128/128 130/130/130 131/131/131
f 135/135/135 133/133/133 132/132/132
f 133/133/133 135/135/135 136/136/136
f 136/136/136 134/134/134 133/133/133
f 134/134/134 136/136/136 137/137/137
f 138/138/138 136/136/136 135/135/135
f 136/136/136 138/138/138 139/139/139
f 139/139/139 137/137/137 136/136/136
f 137/137/137 139/139/139 140/140/140
f 142/142/142 144/144/144 141/141/141
f 144/144/144 142/142/142 145/145/145
f 143/143/143 145/145/145 142/142/142
f 145/145/145 143/143/143 146/146/146
f 145/145/145 147/147/147 144/144/144
f 147/147/147 145/145/145 148/148/148
f 146/146/146 148/148/148 145/145/145
f 148/148/148 146/146/146 149/149/149
f 151/151/151 153/153/153 150/150/150
f 153/153/153 151/151/151 154/154/154
f 152/152/152 154/154/154 151/151/151
f 154/154/154 152/152/152 155/155/155
f 154/154/154 156/156/156 153/153/153
f 156/156/156 154/154/154 157/157/157
f 155/155/155 157/157/157 154/154/154
f 157/157/157 155/155/155 158/158/158
f 162/162/162 160/160/160 159/159/159
f 160/160/160 162/162/162 163/163/163
f 163/163/163 161/161/161 160/160/160
f 161/161/161 163/163/163 164/164/164
f 165/165/165 163/163/163 162/162/162
f 163/163/163 165/165/165 166/166/166
f 166/166/166 164/164/164 163/163/163
f 164/164/164 166/166/166 167/167/167
f 171/171/171 169/169/169 168/168/168
f 169/169/169 171/171/171 172/172/172
f 172/172/172 170/170/170 169/169/169
f 170/170/170 172/172/172 173/173/173
f 174/174/174 172/172/172 171/171/171
f 172/172/172 174/174/174 175/175/175
f 175/175/175 173/173/173 172/172/172
f 173/173/173 175/175/175 176/176/176
f 178/178/178 180/180/180 177/177/177
f 180/180/180 178/178/178 181/181/181
f 179/179/179 181/181/181 178/178/178
f 181/181/181 179/179/179 182/182/182
f 181/181/181 183/183/183 180/180/180
f 183/183/183 181/181/181 184/184/184
f 182/182/182 184/184/184 181/181/181
f 184/184/184 182/182/182 185/185/185
f 187/187/187 189/189/189 186/186/186
f 189/189/189 187/187/187 190/190/190
f 188/188/188 190/190/190 187/187/187
f 190/190/190 188/188/188 191/191/191
f 190/190/190 192/192/192 189/189/189
f 192/192/192 190/190/190 193/193/193
f 191/191/191 193/193/193 190/190/190
f 193/193/193 191/191/191 194/194/194
f 198/198/198 196/196/196 195/195/195
f 196/196/196 198/198/198 199/199/199
f 199/199/199 197/197/197 196/196/196
f 197/197/197 199/199/199 200/200/200
f 201/201/201 199/199/199 198/198/198
f 199/199/199 201/201/201 202/202/202
f 202/202/202 200/200/200 199/199/199
f 200/200/200 202/202/202 203/203/203
f 207/207/207 205/205/205 204/204/204
f 205/205/205 207/207/207 208/208/208
f 208/208/208 206/206/206 205/205/205
f 206/206/206 208/208/208 209/209/209
f 210/210/210 208/208/208 207/207/207
f 208/208/208 210/210/210 211/211/211
f 211/211/211 209/209/209 208/208/208
f 209/209/209 211/211/211 212/212/212
f 214/214/214 216/216/216 213/213/213
f 216/216/216 214/214/214 217/217/217
f 215/215/215 217/217/217 214/214/214
f 217/217/217 215/215/215 218/218/218
f 217/217/217 219/219/219 216/216/216
f 219/219/219 217/217/217 220/220/220
f 218/218/218 220/220/220 217/217/217
f 220/220/220 218/218/218 221/221/221
f 223/223/223 225/225/225 222/222/222
f 225/225/225 223/223/223 226/226/226
f 224/224/224 226/226/226 223/223/223
f 226/226/226 224/224/224 227/227/227
f 226/226/226 228/228/228 225/225/225
f 228/228/228 226/226/226 229/229/229
f 227/227/227 229/229/229 226/226/226
f 229/229/229 227/227/227 230/230/230
f 234/234/234 232/232/232 231/231/231
f 232/232/232 234/234/234 235/235/235
f 235/235/235 233/233/233 232/232/232
f 233/233/233 235/235/235 236/236/236
f 237/237/237 235/235/235 234/234/234
f 235/235/235 237/237/237 238/238/238
f 238/238/238 236/236/236 235/235/235
f 236/236/236 238/238/238 239/239/239
f 243/243/243 241/241/241 240/240/240
f 241/241/241 243/243/243 244/244/244
f 244/244/244 242/242/242 241/241/241
f 242/242/242 244/244/244 245/245/245
f 246/246/246 244/244/244 243/243/243
f 244/244/244 246/246/246 247/247/247
f 247/247/247 245/245/245 244/244/244
f 245/245/245 247/247/247 248/248/248
