# Blender 5.1.2
# www.blender.org
mtllib circle.mtl
o Circle
v 0.000000 0.000000 -1.000000
v -0.195090 0.000000 -0.980785
v -0.382683 0.000000 -0.923880
v -0.555570 0.000000 -0.831470
v -0.707107 0.000000 -0.707107
v -0.831470 0.000000 -0.555570
v -0.923880 0.000000 -0.382683
v -0.980785 0.000000 -0.195090
v -1.000000 0.000000 0.000000
v -0.980785 0.000000 0.195090
v -0.923880 0.000000 0.382683
v -0.831470 0.000000 0.555570
v -0.707107 0.000000 0.707107
v -0.555570 0.000000 0.831470
v -0.382683 0.000000 0.923880
v -0.195090 0.000000 0.980785
v 0.000000 0.000000 1.000000
v 0.195090 0.000000 0.980785
v 0.382683 0.000000 0.923880
v 0.555570 0.000000 0.831470
v 0.707107 0.000000 0.707107
v 0.831470 0.000000 0.555570
v 0.923880 0.000000 0.382683
v 0.980785 0.000000 0.195090
v 1.000000 0.000000 0.000000
v 0.980785 0.000000 -0.195090
v 0.923880 0.000000 -0.382683
v 0.831470 0.000000 -0.555570
v 0.707107 0.000000 -0.707107
v 0.555570 0.000000 -0.831470
v 0.382683 0.000000 -0.923880
v 0.195090 0.000000 -0.980785
vn -0.0000 -1.0000 -0.0000
vt 0.392495 0.989405
vt 0.490040 0.999013
vt 0.587585 0.989405
vt 0.298699 0.960952
vt 0.136487 0.145459
vt 0.767825 0.083278
vt 0.298699 0.037073
vt 0.681382 0.960952
vt 0.767825 0.914747
vt 0.212255 0.914747
vt 0.136487 0.852566
vt 0.843594 0.852566
vt 0.905775 0.776798
vt 0.074306 0.776798
vt 0.028101 0.690354
vt 0.951980 0.690354
vt -0.000352 0.596558
vt 0.980433 0.596558
vt -0.009960 0.499013
vt 0.990040 0.499013
vt -0.000352 0.401468
vt 0.980433 0.401468
vt 0.028101 0.307671
vt 0.951980 0.307671
vt 0.074306 0.221228
vt 0.905775 0.221228
vt 0.843594 0.145459
vt 0.212255 0.083278
vt 0.681382 0.037073
vt 0.392495 0.008620
vt 0.587585 0.008620
vt 0.490040 -0.000987
s 0
usemtl Material.001
f 2/1/1 1/2/1 32/3/1
f 3/4/1 2/1/1 32/3/1
f 13/5/1 20/6/1 15/7/1
f 32/3/1 31/8/1 30/9/1
f 4/10/1 32/3/1 30/9/1
f 5/11/1 4/10/1 30/9/1
f 4/10/1 3/4/1 32/3/1
f 30/9/1 29/12/1 28/13/1
f 6/14/1 30/9/1 28/13/1
f 7/15/1 6/14/1 28/13/1
f 7/15/1 28/13/1 27/16/1
f 8/17/1 7/15/1 27/16/1
f 8/17/1 27/16/1 26/18/1
f 9/19/1 8/17/1 26/18/1
f 9/19/1 26/18/1 25/20/1
f 10/21/1 9/19/1 25/20/1
f 10/21/1 25/20/1 24/22/1
f 11/23/1 10/21/1 24/22/1
f 11/23/1 24/22/1 23/24/1
f 12/25/1 11/23/1 23/24/1
f 12/25/1 23/24/1 22/26/1
f 13/5/1 12/25/1 22/26/1
f 21/27/1 20/6/1 22/26/1
f 6/14/1 5/11/1 30/9/1
f 20/6/1 13/5/1 22/26/1
f 14/28/1 13/5/1 15/7/1
f 15/7/1 20/6/1 19/29/1
f 16/30/1 15/7/1 19/29/1
f 16/30/1 19/29/1 18/31/1
f 17/32/1 16/30/1 18/31/1
